<mxfile host="app.diagrams.net" agent="Mozilla/5.0 (X11; Linux x86_64; rv:140.0) Gecko/20100101 Firefox/140.0" version="27.2.0">
  <diagram name="Online Aukcija Dijagram" id="dddaKmZeun1SkJt7yi96">
    <mxGraphModel dx="1426" dy="741" grid="1" gridSize="10" guides="1" tooltips="1" connect="1" arrows="1" fold="1" page="1" pageScale="1" pageWidth="850" pageHeight="1100" background="#FFFFFF" math="0" shadow="0">
      <root>
        <mxCell id="0" />
        <mxCell id="1" parent="0" />
        <mxCell id="LfhezNj7fZCrbtmwJuY4-60" value="Administrator" style="whiteSpace=wrap;html=1;aspect=fixed;" parent="1" vertex="1">
          <mxGeometry x="710" y="540" width="80" height="80" as="geometry" />
        </mxCell>
        <mxCell id="LfhezNj7fZCrbtmwJuY4-61" value="Prijava" style="rounded=1;whiteSpace=wrap;html=1;" parent="1" vertex="1">
          <mxGeometry x="40" y="360" width="140" height="110" as="geometry" />
        </mxCell>
        <mxCell id="LfhezNj7fZCrbtmwJuY4-63" value="P1" style="rounded=1;whiteSpace=wrap;html=1;fillColor=#0050ef;fontColor=#ffffff;strokeColor=#001DBC;" parent="1" vertex="1">
          <mxGeometry x="40" y="360" width="140" height="30" as="geometry" />
        </mxCell>
        <mxCell id="3glXxpuSbAfWhor-OYfB-1" value="Objava aukcije" style="rounded=1;whiteSpace=wrap;html=1;" parent="1" vertex="1">
          <mxGeometry x="420" y="510" width="140" height="110" as="geometry" />
        </mxCell>
        <mxCell id="3glXxpuSbAfWhor-OYfB-2" value="P4" style="rounded=1;whiteSpace=wrap;html=1;fillColor=#0050ef;fontColor=#ffffff;strokeColor=#001DBC;" parent="1" vertex="1">
          <mxGeometry x="420" y="510" width="140" height="30" as="geometry" />
        </mxCell>
        <mxCell id="3glXxpuSbAfWhor-OYfB-4" value="Licitacija" style="rounded=1;whiteSpace=wrap;html=1;" parent="1" vertex="1">
          <mxGeometry x="420" y="180" width="140" height="110" as="geometry" />
        </mxCell>
        <mxCell id="3glXxpuSbAfWhor-OYfB-5" value="P3" style="rounded=1;whiteSpace=wrap;html=1;fillColor=#0050ef;fontColor=#ffffff;strokeColor=#001DBC;" parent="1" vertex="1">
          <mxGeometry x="420" y="180" width="140" height="30" as="geometry" />
        </mxCell>
        <mxCell id="3glXxpuSbAfWhor-OYfB-6" value="Završetak aukcije" style="rounded=1;whiteSpace=wrap;html=1;" parent="1" vertex="1">
          <mxGeometry x="680" y="360" width="140" height="110" as="geometry" />
        </mxCell>
        <mxCell id="3glXxpuSbAfWhor-OYfB-7" value="P5" style="rounded=1;whiteSpace=wrap;html=1;fillColor=#0050ef;fontColor=#ffffff;strokeColor=#001DBC;" parent="1" vertex="1">
          <mxGeometry x="680" y="360" width="140" height="30" as="geometry" />
        </mxCell>
        <mxCell id="3glXxpuSbAfWhor-OYfB-11" value="&lt;font style=&quot;font-size: 9px;&quot;&gt;Zahtjev za prijavu&lt;/font&gt;" style="text;html=1;align=center;verticalAlign=middle;resizable=0;points=[];autosize=1;strokeColor=none;fillColor=none;rotation=270;" parent="1" vertex="1">
          <mxGeometry x="-10" y="510" width="90" height="30" as="geometry" />
        </mxCell>
        <mxCell id="3glXxpuSbAfWhor-OYfB-13" value="&lt;font style=&quot;font-size: 9px;&quot;&gt;Autentificira&lt;br&gt;&amp;nbsp;korisnika&lt;/font&gt;" style="text;html=1;align=center;verticalAlign=middle;resizable=0;points=[];autosize=1;strokeColor=none;fillColor=none;rotation=270;" parent="1" vertex="1">
          <mxGeometry x="110" y="490" width="70" height="40" as="geometry" />
        </mxCell>
        <mxCell id="3glXxpuSbAfWhor-OYfB-14" value="Kupac" style="whiteSpace=wrap;html=1;aspect=fixed;" parent="1" vertex="1">
          <mxGeometry x="60" y="210" width="80" height="80" as="geometry" />
        </mxCell>
        <mxCell id="3glXxpuSbAfWhor-OYfB-15" value="&lt;font style=&quot;font-size: 9px;&quot;&gt;Zahtjev za prijavu&lt;/font&gt;" style="text;html=1;align=center;verticalAlign=middle;resizable=0;points=[];autosize=1;strokeColor=none;fillColor=none;rotation=270;" parent="1" vertex="1">
          <mxGeometry x="-10" y="300" width="90" height="30" as="geometry" />
        </mxCell>
        <mxCell id="3glXxpuSbAfWhor-OYfB-16" value="" style="endArrow=classic;html=1;rounded=0;entryX=0.213;entryY=1.001;entryDx=0;entryDy=0;entryPerimeter=0;" parent="1" target="LfhezNj7fZCrbtmwJuY4-61" edge="1">
          <mxGeometry width="50" height="50" relative="1" as="geometry">
            <mxPoint x="70" y="540" as="sourcePoint" />
            <mxPoint x="71.94000000000004" y="470.00000000000006" as="targetPoint" />
          </mxGeometry>
        </mxCell>
        <mxCell id="3glXxpuSbAfWhor-OYfB-18" value="" style="endArrow=classic;html=1;rounded=0;entryX=0.213;entryY=1.001;entryDx=0;entryDy=0;entryPerimeter=0;" parent="1" edge="1">
          <mxGeometry width="50" height="50" relative="1" as="geometry">
            <mxPoint x="130" y="290" as="sourcePoint" />
            <mxPoint x="130" y="360" as="targetPoint" />
          </mxGeometry>
        </mxCell>
        <mxCell id="3glXxpuSbAfWhor-OYfB-19" value="" style="endArrow=classic;html=1;rounded=0;entryX=0.213;entryY=1.001;entryDx=0;entryDy=0;entryPerimeter=0;" parent="1" edge="1">
          <mxGeometry width="50" height="50" relative="1" as="geometry">
            <mxPoint x="120" y="470" as="sourcePoint" />
            <mxPoint x="120" y="540" as="targetPoint" />
          </mxGeometry>
        </mxCell>
        <mxCell id="3glXxpuSbAfWhor-OYfB-20" value="" style="endArrow=classic;html=1;rounded=0;entryX=0.213;entryY=1.001;entryDx=0;entryDy=0;entryPerimeter=0;" parent="1" edge="1">
          <mxGeometry width="50" height="50" relative="1" as="geometry">
            <mxPoint x="70" y="360" as="sourcePoint" />
            <mxPoint x="70" y="290" as="targetPoint" />
          </mxGeometry>
        </mxCell>
        <mxCell id="3glXxpuSbAfWhor-OYfB-21" value="&lt;font style=&quot;font-size: 9px;&quot;&gt;Autentificira&lt;br&gt;&amp;nbsp;korisnika&lt;/font&gt;" style="text;html=1;align=center;verticalAlign=middle;resizable=0;points=[];autosize=1;strokeColor=none;fillColor=none;rotation=270;" parent="1" vertex="1">
          <mxGeometry x="120" y="300" width="70" height="40" as="geometry" />
        </mxCell>
        <mxCell id="3glXxpuSbAfWhor-OYfB-23" value="" style="endArrow=classic;html=1;rounded=0;entryX=0;entryY=0.909;entryDx=0;entryDy=0;entryPerimeter=0;" parent="1" target="3glXxpuSbAfWhor-OYfB-1" edge="1">
          <mxGeometry width="50" height="50" relative="1" as="geometry">
            <mxPoint x="140" y="610" as="sourcePoint" />
            <mxPoint x="279.99999999999994" y="609.9999999999999" as="targetPoint" />
            <Array as="points" />
          </mxGeometry>
        </mxCell>
        <mxCell id="3glXxpuSbAfWhor-OYfB-24" value="&lt;font style=&quot;font-size: 9px;&quot;&gt;Zahtjev za objavu s podacima&lt;/font&gt;" style="text;html=1;align=center;verticalAlign=middle;resizable=0;points=[];autosize=1;strokeColor=none;fillColor=none;" parent="1" vertex="1">
          <mxGeometry x="190" y="590" width="140" height="30" as="geometry" />
        </mxCell>
        <mxCell id="3glXxpuSbAfWhor-OYfB-31" value="" style="edgeStyle=orthogonalEdgeStyle;rounded=0;orthogonalLoop=1;jettySize=auto;html=1;" parent="1" source="3glXxpuSbAfWhor-OYfB-25" target="3glXxpuSbAfWhor-OYfB-2" edge="1">
          <mxGeometry relative="1" as="geometry">
            <Array as="points">
              <mxPoint x="540" y="470" />
              <mxPoint x="540" y="470" />
            </Array>
          </mxGeometry>
        </mxCell>
        <mxCell id="3glXxpuSbAfWhor-OYfB-25" value="&lt;div align=&quot;right&quot;&gt;Baza podataka&lt;br&gt;&lt;/div&gt;&lt;div align=&quot;center&quot;&gt;aukcija&lt;/div&gt;" style="rounded=0;whiteSpace=wrap;html=1;align=right;" parent="1" vertex="1">
          <mxGeometry x="410" y="380" width="160" height="60" as="geometry" />
        </mxCell>
        <mxCell id="LfhezNj7fZCrbtmwJuY4-59" value="Prodavač" style="whiteSpace=wrap;html=1;aspect=fixed;" parent="1" vertex="1">
          <mxGeometry x="60" y="540" width="80" height="80" as="geometry" />
        </mxCell>
        <mxCell id="3glXxpuSbAfWhor-OYfB-8" value="Pregled aukcije" style="rounded=1;whiteSpace=wrap;html=1;" parent="1" vertex="1">
          <mxGeometry x="185" y="360" width="140" height="110" as="geometry" />
        </mxCell>
        <mxCell id="3glXxpuSbAfWhor-OYfB-29" value="D1" style="rounded=0;whiteSpace=wrap;html=1;fillColor=light-dark(#CC6600,#FF9933);fillStyle=solid;" parent="1" vertex="1">
          <mxGeometry x="410" y="380" width="50" height="60" as="geometry" />
        </mxCell>
        <mxCell id="3glXxpuSbAfWhor-OYfB-32" value="&lt;font style=&quot;font-size: 9px;&quot;&gt;Šalje objavu u bazu&lt;/font&gt;" style="text;html=1;align=center;verticalAlign=middle;resizable=0;points=[];autosize=1;strokeColor=none;fillColor=none;" parent="1" vertex="1">
          <mxGeometry x="530" y="470" width="100" height="30" as="geometry" />
        </mxCell>
        <mxCell id="3glXxpuSbAfWhor-OYfB-33" value="" style="edgeStyle=orthogonalEdgeStyle;rounded=0;orthogonalLoop=1;jettySize=auto;html=1;" parent="1" edge="1">
          <mxGeometry relative="1" as="geometry">
            <mxPoint x="450" y="440" as="sourcePoint" />
            <mxPoint x="450" y="510" as="targetPoint" />
            <Array as="points">
              <mxPoint x="450" y="470" />
              <mxPoint x="450" y="470" />
            </Array>
          </mxGeometry>
        </mxCell>
        <mxCell id="3glXxpuSbAfWhor-OYfB-34" value="&lt;font style=&quot;font-size: 9px;&quot;&gt;Šalje potvrdu o objavi&lt;/font&gt;" style="text;html=1;align=center;verticalAlign=middle;resizable=0;points=[];autosize=1;strokeColor=none;fillColor=none;" parent="1" vertex="1">
          <mxGeometry x="350" y="480" width="110" height="30" as="geometry" />
        </mxCell>
        <mxCell id="3glXxpuSbAfWhor-OYfB-35" value="" style="endArrow=classic;html=1;rounded=0;exitX=0;exitY=1;exitDx=0;exitDy=0;entryX=1;entryY=0.25;entryDx=0;entryDy=0;" parent="1" edge="1">
          <mxGeometry width="50" height="50" relative="1" as="geometry">
            <mxPoint x="420" y="590" as="sourcePoint" />
            <mxPoint x="140" y="590" as="targetPoint" />
          </mxGeometry>
        </mxCell>
        <mxCell id="3glXxpuSbAfWhor-OYfB-36" value="&lt;font style=&quot;font-size: 9px;&quot;&gt;Vraća korisniku potvrdu o objavi&lt;/font&gt;" style="text;html=1;align=center;verticalAlign=middle;resizable=0;points=[];autosize=1;strokeColor=none;fillColor=none;" parent="1" vertex="1">
          <mxGeometry x="185" y="565" width="150" height="30" as="geometry" />
        </mxCell>
        <mxCell id="3glXxpuSbAfWhor-OYfB-37" value="P2" style="rounded=1;whiteSpace=wrap;html=1;fillColor=#0050ef;fontColor=#ffffff;strokeColor=#001DBC;" parent="1" vertex="1">
          <mxGeometry x="185" y="360" width="140" height="30" as="geometry" />
        </mxCell>
        <mxCell id="3glXxpuSbAfWhor-OYfB-48" value="" style="endArrow=classic;html=1;rounded=0;" parent="1" edge="1">
          <mxGeometry width="50" height="50" relative="1" as="geometry">
            <mxPoint x="200" y="472" as="sourcePoint" />
            <mxPoint x="140" y="550" as="targetPoint" />
            <Array as="points">
              <mxPoint x="200" y="550" />
            </Array>
          </mxGeometry>
        </mxCell>
        <mxCell id="3glXxpuSbAfWhor-OYfB-49" value="" style="endArrow=classic;html=1;rounded=0;" parent="1" edge="1">
          <mxGeometry width="50" height="50" relative="1" as="geometry">
            <mxPoint x="140" y="565" as="sourcePoint" />
            <mxPoint x="210" y="473" as="targetPoint" />
            <Array as="points">
              <mxPoint x="210" y="565" />
            </Array>
          </mxGeometry>
        </mxCell>
        <mxCell id="3glXxpuSbAfWhor-OYfB-50" value="&lt;font style=&quot;font-size: 9px;&quot;&gt;zahtjev o podacima za aukciju&lt;/font&gt;" style="text;html=1;align=center;verticalAlign=middle;resizable=0;points=[];autosize=1;strokeColor=none;fillColor=none;" parent="1" vertex="1">
          <mxGeometry x="210" y="525" width="140" height="30" as="geometry" />
        </mxCell>
        <mxCell id="3glXxpuSbAfWhor-OYfB-51" value="" style="endArrow=classic;html=1;rounded=0;entryX=0;entryY=1;entryDx=0;entryDy=0;" parent="1" target="3glXxpuSbAfWhor-OYfB-29" edge="1">
          <mxGeometry width="50" height="50" relative="1" as="geometry">
            <mxPoint x="325" y="440" as="sourcePoint" />
            <mxPoint x="385" y="410" as="targetPoint" />
          </mxGeometry>
        </mxCell>
        <mxCell id="3glXxpuSbAfWhor-OYfB-52" value="&lt;font style=&quot;font-size: 9px;&quot;&gt;Zahtjev za objavu&lt;/font&gt;" style="text;html=1;align=center;verticalAlign=middle;resizable=0;points=[];autosize=1;strokeColor=none;fillColor=none;" parent="1" vertex="1">
          <mxGeometry x="320" y="420" width="90" height="30" as="geometry" />
        </mxCell>
        <mxCell id="3glXxpuSbAfWhor-OYfB-53" value="" style="endArrow=classic;html=1;rounded=0;entryX=0;entryY=1;entryDx=0;entryDy=0;" parent="1" edge="1">
          <mxGeometry width="50" height="50" relative="1" as="geometry">
            <mxPoint x="410" y="390" as="sourcePoint" />
            <mxPoint x="325" y="390" as="targetPoint" />
          </mxGeometry>
        </mxCell>
        <mxCell id="3glXxpuSbAfWhor-OYfB-54" value="&lt;font style=&quot;font-size: 9px;&quot;&gt;Potvrda o objavi&lt;/font&gt;" style="text;html=1;align=center;verticalAlign=middle;resizable=0;points=[];autosize=1;strokeColor=none;fillColor=none;" parent="1" vertex="1">
          <mxGeometry x="325" y="370" width="90" height="30" as="geometry" />
        </mxCell>
        <mxCell id="3glXxpuSbAfWhor-OYfB-55" value="&lt;font style=&quot;font-size: 9px;&quot;&gt;Odgovor s&lt;br&gt;&amp;nbsp;podacima&lt;/font&gt;" style="text;html=1;align=center;verticalAlign=middle;resizable=0;points=[];autosize=1;strokeColor=none;fillColor=none;rotation=270;" parent="1" vertex="1">
          <mxGeometry x="150" y="500" width="60" height="40" as="geometry" />
        </mxCell>
        <mxCell id="3glXxpuSbAfWhor-OYfB-56" value="" style="endArrow=classic;html=1;rounded=0;exitX=0.107;exitY=0;exitDx=0;exitDy=0;exitPerimeter=0;" parent="1" edge="1">
          <mxGeometry width="50" height="50" relative="1" as="geometry">
            <mxPoint x="207.18" y="360" as="sourcePoint" />
            <mxPoint x="140" y="280" as="targetPoint" />
            <Array as="points">
              <mxPoint x="207" y="280" />
            </Array>
          </mxGeometry>
        </mxCell>
        <mxCell id="3glXxpuSbAfWhor-OYfB-58" value="" style="endArrow=classic;html=1;rounded=0;entryX=0.3;entryY=-0.044;entryDx=0;entryDy=0;entryPerimeter=0;exitX=1.035;exitY=0.629;exitDx=0;exitDy=0;exitPerimeter=0;" parent="1" source="3glXxpuSbAfWhor-OYfB-14" target="3glXxpuSbAfWhor-OYfB-37" edge="1">
          <mxGeometry width="50" height="50" relative="1" as="geometry">
            <mxPoint x="160" y="260" as="sourcePoint" />
            <mxPoint x="230" y="350" as="targetPoint" />
            <Array as="points">
              <mxPoint x="227" y="260" />
            </Array>
          </mxGeometry>
        </mxCell>
        <mxCell id="3glXxpuSbAfWhor-OYfB-59" value="&lt;font style=&quot;font-size: 9px;&quot;&gt;Zahtjev o podacima za aukciju&lt;/font&gt;" style="text;html=1;align=center;verticalAlign=middle;resizable=0;points=[];autosize=1;strokeColor=none;fillColor=none;" parent="1" vertex="1">
          <mxGeometry x="220" y="320" width="140" height="30" as="geometry" />
        </mxCell>
        <mxCell id="3glXxpuSbAfWhor-OYfB-60" value="&lt;font style=&quot;font-size: 9px;&quot;&gt;Odgovor s&lt;br&gt;&amp;nbsp;podacima&lt;/font&gt;" style="text;html=1;align=center;verticalAlign=middle;resizable=0;points=[];autosize=1;strokeColor=none;fillColor=none;rotation=270;" parent="1" vertex="1">
          <mxGeometry x="160" y="300" width="60" height="40" as="geometry" />
        </mxCell>
        <mxCell id="3glXxpuSbAfWhor-OYfB-61" value="" style="endArrow=classic;html=1;rounded=0;entryX=0;entryY=0.636;entryDx=0;entryDy=0;entryPerimeter=0;" parent="1" target="3glXxpuSbAfWhor-OYfB-4" edge="1">
          <mxGeometry width="50" height="50" relative="1" as="geometry">
            <mxPoint x="140" y="250" as="sourcePoint" />
            <mxPoint x="190" y="200" as="targetPoint" />
          </mxGeometry>
        </mxCell>
        <mxCell id="3glXxpuSbAfWhor-OYfB-62" value="&lt;font style=&quot;font-size: 9px;&quot;&gt;Šalje ponudu za odabranu aukciju&lt;/font&gt;" style="text;html=1;align=center;verticalAlign=middle;resizable=0;points=[];autosize=1;strokeColor=none;fillColor=none;" parent="1" vertex="1">
          <mxGeometry x="190" y="230" width="160" height="30" as="geometry" />
        </mxCell>
        <mxCell id="3glXxpuSbAfWhor-OYfB-63" value="" style="endArrow=classic;html=1;rounded=0;exitX=0.163;exitY=1.018;exitDx=0;exitDy=0;exitPerimeter=0;entryX=0.656;entryY=0;entryDx=0;entryDy=0;entryPerimeter=0;" parent="1" source="3glXxpuSbAfWhor-OYfB-4" target="3glXxpuSbAfWhor-OYfB-29" edge="1">
          <mxGeometry width="50" height="50" relative="1" as="geometry">
            <mxPoint x="450" y="345" as="sourcePoint" />
            <mxPoint x="500" y="295" as="targetPoint" />
          </mxGeometry>
        </mxCell>
        <mxCell id="3glXxpuSbAfWhor-OYfB-64" value="&lt;font style=&quot;font-size: 9px;&quot;&gt;Salje korisnikovu&amp;nbsp;&lt;br&gt;ponudu za aukciju&lt;/font&gt;" style="text;html=1;align=center;verticalAlign=middle;resizable=0;points=[];autosize=1;strokeColor=none;fillColor=none;rotation=270;" parent="1" vertex="1">
          <mxGeometry x="375" y="315" width="100" height="40" as="geometry" />
        </mxCell>
        <mxCell id="3glXxpuSbAfWhor-OYfB-66" value="" style="endArrow=classic;html=1;rounded=0;exitX=0.163;exitY=1.018;exitDx=0;exitDy=0;exitPerimeter=0;entryX=0.656;entryY=0;entryDx=0;entryDy=0;entryPerimeter=0;" parent="1" edge="1">
          <mxGeometry width="50" height="50" relative="1" as="geometry">
            <mxPoint x="530" y="380" as="sourcePoint" />
            <mxPoint x="530" y="292" as="targetPoint" />
          </mxGeometry>
        </mxCell>
        <mxCell id="3glXxpuSbAfWhor-OYfB-67" value="&lt;div&gt;&lt;font style=&quot;font-size: 9px;&quot;&gt;Vraća ažuriranu&amp;nbsp;&lt;br&gt;aukciju i potvrdu&lt;/font&gt;&lt;/div&gt;" style="text;html=1;align=center;verticalAlign=middle;resizable=0;points=[];autosize=1;strokeColor=none;fillColor=none;rotation=270;" parent="1" vertex="1">
          <mxGeometry x="470" y="320" width="90" height="40" as="geometry" />
        </mxCell>
        <mxCell id="3glXxpuSbAfWhor-OYfB-68" value="" style="endArrow=classic;html=1;rounded=0;entryX=0;entryY=0.636;entryDx=0;entryDy=0;entryPerimeter=0;" parent="1" edge="1">
          <mxGeometry width="50" height="50" relative="1" as="geometry">
            <mxPoint x="420" y="220" as="sourcePoint" />
            <mxPoint x="140" y="220" as="targetPoint" />
          </mxGeometry>
        </mxCell>
        <mxCell id="3glXxpuSbAfWhor-OYfB-69" value="&lt;font style=&quot;font-size: 9px;&quot;&gt;Vraća potvrdu o licitaciji&lt;/font&gt;" style="text;html=1;align=center;verticalAlign=middle;resizable=0;points=[];autosize=1;strokeColor=none;fillColor=none;" parent="1" vertex="1">
          <mxGeometry x="200" y="200" width="120" height="30" as="geometry" />
        </mxCell>
        <mxCell id="3glXxpuSbAfWhor-OYfB-71" value="Sustav za&lt;br&gt;naplatu" style="ellipse;whiteSpace=wrap;html=1;" parent="1" vertex="1">
          <mxGeometry x="680" y="195" width="120" height="80" as="geometry" />
        </mxCell>
        <mxCell id="3glXxpuSbAfWhor-OYfB-72" value="" style="endArrow=classic;html=1;rounded=0;" parent="1" edge="1">
          <mxGeometry width="50" height="50" relative="1" as="geometry">
            <mxPoint x="770" y="360" as="sourcePoint" />
            <mxPoint x="768" y="270" as="targetPoint" />
          </mxGeometry>
        </mxCell>
        <mxCell id="3glXxpuSbAfWhor-OYfB-73" value="&lt;font style=&quot;font-size: 9px;&quot;&gt;Šalje informacije o aukciji,&lt;br&gt;kupcu i prodavaču&lt;/font&gt;" style="text;html=1;align=center;verticalAlign=middle;resizable=0;points=[];autosize=1;strokeColor=none;fillColor=none;rotation=270;" parent="1" vertex="1">
          <mxGeometry x="750" y="280" width="130" height="40" as="geometry" />
        </mxCell>
        <mxCell id="3glXxpuSbAfWhor-OYfB-74" value="" style="endArrow=classic;html=1;rounded=0;" parent="1" edge="1">
          <mxGeometry width="50" height="50" relative="1" as="geometry">
            <mxPoint x="708" y="270" as="sourcePoint" />
            <mxPoint x="710" y="360" as="targetPoint" />
          </mxGeometry>
        </mxCell>
        <mxCell id="3glXxpuSbAfWhor-OYfB-75" value="&lt;font style=&quot;font-size: 9px;&quot;&gt;Verficira sve podatke&lt;br&gt;&amp;nbsp;i vraća potvrdu&lt;/font&gt;" style="text;html=1;align=center;verticalAlign=middle;resizable=0;points=[];autosize=1;strokeColor=none;fillColor=none;rotation=270;" parent="1" vertex="1">
          <mxGeometry x="640" y="295" width="110" height="40" as="geometry" />
        </mxCell>
        <mxCell id="3glXxpuSbAfWhor-OYfB-76" value="" style="endArrow=classic;html=1;rounded=0;entryX=-0.027;entryY=0.869;entryDx=0;entryDy=0;entryPerimeter=0;" parent="1" target="LfhezNj7fZCrbtmwJuY4-60" edge="1">
          <mxGeometry width="50" height="50" relative="1" as="geometry">
            <mxPoint x="560" y="610" as="sourcePoint" />
            <mxPoint x="610" y="560" as="targetPoint" />
          </mxGeometry>
        </mxCell>
        <mxCell id="3glXxpuSbAfWhor-OYfB-77" value="&lt;font style=&quot;font-size: 9px;&quot;&gt;Provjerava validnost objave&lt;/font&gt;" style="text;html=1;align=center;verticalAlign=middle;resizable=0;points=[];autosize=1;strokeColor=none;fillColor=none;" parent="1" vertex="1">
          <mxGeometry x="570" y="590" width="130" height="30" as="geometry" />
        </mxCell>
        <mxCell id="3glXxpuSbAfWhor-OYfB-78" value="" style="endArrow=classic;html=1;rounded=0;entryX=-0.027;entryY=0.869;entryDx=0;entryDy=0;entryPerimeter=0;" parent="1" edge="1">
          <mxGeometry width="50" height="50" relative="1" as="geometry">
            <mxPoint x="708" y="555" as="sourcePoint" />
            <mxPoint x="560" y="555" as="targetPoint" />
          </mxGeometry>
        </mxCell>
        <mxCell id="3glXxpuSbAfWhor-OYfB-80" value="&lt;font style=&quot;font-size: 9px;&quot;&gt;Potvrđuje objavu&amp;nbsp;&lt;/font&gt;" style="text;html=1;align=center;verticalAlign=middle;resizable=0;points=[];autosize=1;strokeColor=none;fillColor=none;" parent="1" vertex="1">
          <mxGeometry x="590" y="530" width="90" height="30" as="geometry" />
        </mxCell>
        <mxCell id="3glXxpuSbAfWhor-OYfB-81" value="" style="endArrow=classic;html=1;rounded=0;entryX=0;entryY=0;entryDx=0;entryDy=0;" parent="1" edge="1">
          <mxGeometry width="50" height="50" relative="1" as="geometry">
            <mxPoint x="720" y="470" as="sourcePoint" />
            <mxPoint x="720" y="540" as="targetPoint" />
          </mxGeometry>
        </mxCell>
        <mxCell id="3glXxpuSbAfWhor-OYfB-82" value="&lt;font style=&quot;font-size: 8px;&quot;&gt;Šalje informacije&lt;br&gt;u slučaju neispravnosti&lt;/font&gt;" style="text;html=1;align=center;verticalAlign=middle;resizable=0;points=[];autosize=1;strokeColor=none;fillColor=none;rotation=270;" parent="1" vertex="1">
          <mxGeometry x="630" y="490" width="100" height="40" as="geometry" />
        </mxCell>
        <mxCell id="3glXxpuSbAfWhor-OYfB-84" value="" style="endArrow=classic;html=1;rounded=0;entryX=0;entryY=0;entryDx=0;entryDy=0;" parent="1" edge="1">
          <mxGeometry width="50" height="50" relative="1" as="geometry">
            <mxPoint x="770" y="540" as="sourcePoint" />
            <mxPoint x="770" y="470" as="targetPoint" />
          </mxGeometry>
        </mxCell>
        <mxCell id="3glXxpuSbAfWhor-OYfB-85" value="&lt;font style=&quot;font-size: 9px;&quot;&gt;Šalje potvrdu&lt;br&gt;&amp;nbsp;o završetku&lt;/font&gt;" style="text;html=1;align=center;verticalAlign=middle;resizable=0;points=[];autosize=1;strokeColor=none;fillColor=none;rotation=270;" parent="1" vertex="1">
          <mxGeometry x="750" y="490" width="80" height="40" as="geometry" />
        </mxCell>
        <mxCell id="3glXxpuSbAfWhor-OYfB-86" value="" style="endArrow=none;html=1;rounded=0;exitX=-0.021;exitY=0.355;exitDx=0;exitDy=0;exitPerimeter=0;entryX=0.25;entryY=0;entryDx=0;entryDy=0;" parent="1" source="3glXxpuSbAfWhor-OYfB-6" target="3glXxpuSbAfWhor-OYfB-14" edge="1">
          <mxGeometry width="50" height="50" relative="1" as="geometry">
            <mxPoint x="670" y="400" as="sourcePoint" />
            <mxPoint x="80" y="180" as="targetPoint" />
            <Array as="points">
              <mxPoint x="600" y="400" />
              <mxPoint x="600" y="160" />
              <mxPoint x="80" y="160" />
            </Array>
          </mxGeometry>
        </mxCell>
        <mxCell id="3glXxpuSbAfWhor-OYfB-88" value="Šalje potvrdu završetka aukcije te korisnikov status u aukciji&amp;nbsp;" style="text;html=1;align=center;verticalAlign=middle;resizable=0;points=[];autosize=1;strokeColor=none;fillColor=none;" parent="1" vertex="1">
          <mxGeometry x="210" y="130" width="340" height="30" as="geometry" />
        </mxCell>
        <mxCell id="3glXxpuSbAfWhor-OYfB-91" value="" style="endArrow=none;html=1;rounded=0;" parent="1" edge="1">
          <mxGeometry width="50" height="50" relative="1" as="geometry">
            <mxPoint x="600" y="450" as="sourcePoint" />
            <mxPoint x="680" y="450" as="targetPoint" />
          </mxGeometry>
        </mxCell>
        <mxCell id="3glXxpuSbAfWhor-OYfB-92" value="" style="endArrow=none;dashed=1;html=1;dashPattern=1 3;strokeWidth=2;rounded=0;" parent="1" edge="1">
          <mxGeometry width="50" height="50" relative="1" as="geometry">
            <mxPoint x="600" y="680" as="sourcePoint" />
            <mxPoint x="600" y="450" as="targetPoint" />
          </mxGeometry>
        </mxCell>
        <mxCell id="3glXxpuSbAfWhor-OYfB-93" value="" style="endArrow=none;html=1;rounded=0;" parent="1" edge="1">
          <mxGeometry width="50" height="50" relative="1" as="geometry">
            <mxPoint x="80" y="680" as="sourcePoint" />
            <mxPoint x="600" y="680" as="targetPoint" />
          </mxGeometry>
        </mxCell>
        <mxCell id="3glXxpuSbAfWhor-OYfB-94" value="" style="endArrow=classic;html=1;rounded=0;entryX=0.25;entryY=0;entryDx=0;entryDy=0;" parent="1" target="3glXxpuSbAfWhor-OYfB-14" edge="1">
          <mxGeometry width="50" height="50" relative="1" as="geometry">
            <mxPoint x="80" y="160" as="sourcePoint" />
            <mxPoint x="130" y="110" as="targetPoint" />
          </mxGeometry>
        </mxCell>
        <mxCell id="3glXxpuSbAfWhor-OYfB-95" value="" style="endArrow=classic;html=1;rounded=0;entryX=0.25;entryY=1;entryDx=0;entryDy=0;" parent="1" target="LfhezNj7fZCrbtmwJuY4-59" edge="1">
          <mxGeometry width="50" height="50" relative="1" as="geometry">
            <mxPoint x="80" y="680" as="sourcePoint" />
            <mxPoint x="130" y="630" as="targetPoint" />
          </mxGeometry>
        </mxCell>
        <mxCell id="3glXxpuSbAfWhor-OYfB-96" value="Šalje potvrdu o završetku u aukcije i novac s povezanim računom" style="text;html=1;align=center;verticalAlign=middle;resizable=0;points=[];autosize=1;strokeColor=none;fillColor=none;" parent="1" vertex="1">
          <mxGeometry x="160" y="680" width="370" height="30" as="geometry" />
        </mxCell>
        <mxCell id="KrAmvtJAL0OLTIq__6RH-1" value="" style="endArrow=classic;startArrow=classic;html=1;rounded=0;entryX=-0.021;entryY=0.655;entryDx=0;entryDy=0;entryPerimeter=0;" edge="1" parent="1" target="3glXxpuSbAfWhor-OYfB-6">
          <mxGeometry width="50" height="50" relative="1" as="geometry">
            <mxPoint x="570" y="432" as="sourcePoint" />
            <mxPoint x="620" y="385" as="targetPoint" />
          </mxGeometry>
        </mxCell>
        <mxCell id="KrAmvtJAL0OLTIq__6RH-2" value="&lt;font style=&quot;font-size: 9px;&quot;&gt;Ažuriranje podataka&lt;br&gt;&amp;nbsp;o završetku&lt;/font&gt;" style="text;html=1;align=center;verticalAlign=middle;resizable=0;points=[];autosize=1;strokeColor=none;fillColor=none;" vertex="1" parent="1">
          <mxGeometry x="570" y="400" width="100" height="40" as="geometry" />
        </mxCell>
      </root>
    </mxGraphModel>
  </diagram>
</mxfile>
